<svg xmlns="http://www.w3.org/2000/svg" viewBox="0 0 32 32" width="32" height="32">
  <defs>
    <linearGradient id="bg" x1="0%" y1="0%" x2="100%" y2="100%">
      <stop offset="0%" stop-color="#0ea5e9"/>
      <stop offset="55%" stop-color="#06b6d4"/>
      <stop offset="100%" stop-color="#0d9488"/>
    </linearGradient>
    <linearGradient id="shine" x1="0%" y1="0%" x2="0%" y2="100%">
      <stop offset="0%" stop-color="#ffffff" stop-opacity="0.2"/>
      <stop offset="100%" stop-color="#ffffff" stop-opacity="0"/>
    </linearGradient>
  </defs>

  <!-- Background -->
  <rect width="32" height="32" rx="7" fill="url(#bg)"/>
  <rect width="32" height="32" rx="7" fill="url(#shine)"/>

  <!-- Chat bubble icon — suits social media -->
  <path d="M6 8.5 C6 7.12 7.12 6 8.5 6 L23.5 6 C24.88 6 26 7.12 26 8.5 L26 19.5 C26 20.88 24.88 22 23.5 22 L18 22 L13 27 L13 22 L8.5 22 C7.12 22 6 20.88 6 19.5 Z"
    fill="#ffffff" opacity="0.95"/>

  <!-- Dot indicators inside bubble -->
  <circle cx="12" cy="14" r="1.6" fill="url(#bg)"/>
  <circle cx="16" cy="14" r="1.6" fill="url(#bg)"/>
  <circle cx="20" cy="14" r="1.6" fill="url(#bg)"/>
</svg>
